<svg width="126" height="181" viewBox="0 0 126 181" fill="none" xmlns="http://www.w3.org/2000/svg">
<path fill-rule="evenodd" clip-rule="evenodd" d="M114.9 0.300049C106.6 3.60005 102 5.60005 94.2 9.50005C88.5 5.60005 84.8999 3.50005 78.3999 0.300049L67 13C74.9 19.6 80.6 24.9 88.1 32.3C99.5 24.9 108.1 19.6 119.5 13L114.9 0.300049ZM103.2 140.3C110.4 113.4 110.5 106.2 75.8999 97.4C55.6999 92.3 55.2 92.1 58.7 78.9C61.4 68.8 65.0999 66.4 78.8999 66.4C92.6999 66.4 100.9 67.6 115.8 70.3L125.8 44.4C111.5 41.1 97.5 39.9 85.6 39.9C48 39.9 35.5 50.8001 28.2 78.1001C20.3 107.7 23.4 114.2 54.6 121.4C75.7 126.3 75.9 127.8 72.6 140.1C69.5 151.6 65.6 154.7 49.8 154.7C34 154.7 23.6 152 12.2 148.1L0.699951 171.9C11 177.2 26.7 180.7 42.5 180.7C83.8 180.7 96.1999 167.4 103.4 140.3H103.2Z" fill="white"/>
</svg>
