<svg width="521" height="521" viewBox="0 0 521 521" fill="none" xmlns="http://www.w3.org/2000/svg">
<path d="M415.3 0H105.4C47.1892 0 0 47.1892 0 105.4V415.3C0 473.511 47.1892 520.7 105.4 520.7H415.3C473.511 520.7 520.7 473.511 520.7 415.3V105.4C520.7 47.1892 473.511 0 415.3 0Z" fill="#E2000F"/>
<path d="M287.7 172.6V212.9H350.2L342 275.7H287.8V437.6H222.9V275.7H168.6V212.9H222.9V166.5C222.9 112.6 255.7 83.1 303.8 83.1C351.9 83.1 346.5 85.1 352.3 85.5V141.8H319C293.1 141.8 287.8 154.5 287.8 172.6H287.7Z" fill="white"/>
</svg>
