<?xml version="1.0" encoding="UTF-8"?>
<svg xmlns="http://www.w3.org/2000/svg" version="1.1" viewBox="0 0 1000 1000">
  <defs>
    <style>
      .cls-1, .cls-2 {
        fill: #fff;
      }

      .cls-2 {
        fill-rule: evenodd;
      }

      .cls-3 {
        fill: #e2000f;
      }

      .cls-4 {
        display: none;
      }
    </style>
  </defs>
  <!-- Generator: Adobe Illustrator 28.6.0, SVG Export Plug-In . SVG Version: 1.2.0 Build 709)  -->
  <g>
    <g id="Instagram" class="cls-4">
      <rect class="cls-3" x="236.2" y="246.5" width="520.5" height="520.5" rx="105.4" ry="105.4"/>
      <g>
        <path class="cls-1" d="M666.5,436.2c-2.7-62.2-37.3-96.7-99.5-99.5-18.3-.8-24.2-1.2-70.6-1.2s-52.3.4-70.6,1.2c-62.2,2.8-96.7,37.3-99.5,99.5-.8,18.2-1.2,24.2-1.2,70.6s.4,52.3,1.2,70.6c2.8,62.2,37.3,96.7,99.5,99.5,18.2.8,24.2,1.2,70.6,1.2s52.3-.4,70.6-1.2c62.2-2.7,96.7-37.2,99.5-99.5.8-18.3,1.2-24.2,1.2-70.6s-.4-52.3-1.2-70.6ZM635.9,575.7c-2.4,46.4-23.8,68.2-70.2,70.2-18.2,1.2-23.8,1.2-69.3,1.2s-51.1,0-69-1.2c-46.8-2-68.2-24.2-70.1-70.2-.8-17.8-1.2-23.4-1.2-68.9s.4-51.1,1.2-69c2-46.4,23.8-68.2,70.1-70.1,17.9-.8,23.4-1.2,69-1.2s51.1.4,69.3,1.2c46.4,2,67.8,23.8,70.2,70.1.8,17.9.8,23.4.8,69s0,51.1-.8,68.9Z"/>
        <path class="cls-1" d="M588,394.9c-11.5,0-20.6,9.1-20.6,20.6s9.1,20.2,20.6,20.2,20.2-9.1,20.2-20.2-9.1-20.6-20.2-20.6Z"/>
        <path class="cls-1" d="M496.4,418.7c-48.4,0-88,39.6-88,88s39.6,88,88,88,88-39.7,88-88-39.3-88-88-88ZM496.4,563.8c-31.3,0-57.1-25.4-57.1-57s25.8-57.1,57.1-57.1,57,25.8,57,57.1-25.4,57-57,57Z"/>
      </g>
    </g>
    <g id="Domek" class="cls-4">
      <rect x="187" y="241" width="568.7" height="568.7" rx="82" ry="82"/>
      <g>
        <path class="cls-1" d="M610.9,597.8c0,2.8-1.1,5.5-3.1,7.5-2,2-4.7,3.1-7.5,3.1s-5.6-1.1-7.5-3.1c-2-2-3.1-4.7-3.1-7.5s1.1-5.6,3.1-7.5c4-4,11.1-4,15,0h0c2,2,3.1,4.7,3.1,7.5Z"/>
        <path class="cls-1" d="M636.5,679.8h-25.6v-58.5c0-5.9-4.8-10.7-10.6-10.7s-10.7,4.8-10.7,10.7v58.5h-204.2v-59.1c0-5.9-4.8-10.7-10.7-10.7s-10.6,4.8-10.6,10.7v59.1h-11v-170.7l118.2-92.3,118.2,92.3v61.9c0,5.9,4.8,10.6,10.7,10.6s10.6-4.8,10.6-10.6v-47.2c3.3.5,6.6-.7,8.9-3l24.2-24.2c2.1-2.1,3.3-5.1,3.1-8.2-.2-3-1.7-5.9-4-7.7l-38.8-30.3v-65.4c0-5.8-4.8-10.6-10.7-10.6h-38.9c-5.9,0-10.6,4.8-10.6,10.6v18.4l-66.1-51.6c-3.8-3-9.2-3-13.1,0l-165.1,128.9c-2.4,1.9-3.9,4.7-4.1,7.7-.2,3,.9,6,3.1,8.2l24.2,24.2c2.4,2.5,5.7,3.5,8.9,3v156h-25.6c-5.9,0-10.7,4.8-10.7,10.7s4.8,10.6,10.7,10.6h330.2c5.9,0,10.6-4.8,10.6-10.6s-4.8-10.7-10.6-10.7ZM565.3,395.7h17.6v38.1l-17.6-13.8v-24.3Z"/>
        <path class="cls-1" d="M535.8,495.9h-128.9c-5.9,0-10.6,4.8-10.6,10.6v128.9c0,5.9,4.8,10.6,10.6,10.6h128.9c5.9,0,10.6-4.8,10.6-10.6v-128.9c0-5.8-4.7-10.6-10.6-10.6ZM460.7,624.8h-43.2v-43.1h43.2v43.1ZM460.7,560.4h-43.2v-43.2h43.2v43.2ZM525.2,624.8h-43.2v-43.1h43.2v43.1ZM525.2,560.4h-43.2v-43.2h43.2v43.2Z"/>
        <path class="cls-1" d="M385.4,594.2c0,6-4.8,10.7-10.7,10.7s-10.6-4.8-10.6-10.6,4.8-10.7,10.6-10.7,10.7,4.8,10.7,10.6Z"/>
      </g>
    </g>
    <g id="certifikat" class="cls-4">
      <rect x="187" y="241" width="568.7" height="568.7" rx="82" ry="82"/>
      <g>
        <path class="cls-1" d="M471.2,390.6c-58.3,0-105.7,47.4-105.7,105.7s47.4,105.6,105.7,105.6,105.6-47.4,105.6-105.6-47.4-105.7-105.6-105.7ZM471.2,579.1c-45.7,0-82.9-37.2-82.9-82.9s37.2-82.9,82.9-82.9,82.9,37.2,82.9,82.9-37.2,82.9-82.9,82.9Z"/>
        <path class="cls-1" d="M608.3,528.7c-1.5-3.1-.7-6.9,1.7-9.2,12.7-11,14.1-30.3,3.1-43.1-.9-1.1-2-2.1-3.1-3.1-2.6-2.4-3.3-6.1-1.8-9.2,7.2-15.2.8-33.4-14.4-40.7-.9-.5-2-.9-3-1.3-3.3-1.1-5.4-4.2-5.2-7.7.5-8.2-2.3-16.1-7.8-22.2-5.4-6.1-13-9.7-21.2-10.2-1.5-.1-3,0-4.1,0-3.5,0-6.2-2.1-7.3-5.2-5.6-15.9-23-24.2-38.9-18.7-1,.4-2,.8-2.9,1.3-4.3,1.9-5.9.8-10.4-3.1s-10.5-9.2-21.8-9.2c-8.7,0-17,3.8-22.8,10.2-2.4,2.6-6.2,3.3-9.3,1.9-7.3-3.6-15.6-4-23.3-1.3-7.7,2.7-13.8,8.2-17.4,15.5-.5,1-.9,2.1-1.3,3.2-1.1,3.3-4.4,5.4-7.8,5.2-16.9-.9-31.5,12-32.5,28.9,0,1.5,0,3,0,4.2,0,3.2-2,6.2-5.2,7.3-15.9,5.6-24.3,23.1-18.6,39,.4.9.7,1.9,1.2,3,1.7,3.2.9,7.1-1.9,9.5-6.1,5.4-9.7,12.9-10.2,21.1-.5,8.2,2.3,16,7.7,22.1.8.9,1.6,1.7,2.5,2.5,2.6,2.4,3.3,6.1,1.8,9.3-3.5,7.3-4,15.6-1.3,23.2,2.7,7.7,8.2,13.9,15.5,17.4,1,.5,2.1.9,3.2,1.3,3.2,1.2,5.4,4.3,5.2,7.9-.7,12.4,6.3,24,17.3,29.2-5.8,10-10.6,18.2-14.4,24.8q-18.1,30.9-13.9,37c4.1,6.2,7.8,5.7,25.5,3.3,3.6-.5,7.7-1,12.8-1.7,2,4.8,3.6,8.7,5,12.1,6.7,16.3,8.3,20.2,15.8,20.2s7.3,0,30.8-41.1c4-7.1,8.8-15.4,14.5-25.2,11.4,10.8,29.4,11.2,41.3.6.2-.2.4-.3.6-.5,7.5,13,13.4,23.4,18.1,31.7,17.8,31.2,19.8,34.8,25.2,34.8s1.4,0,2.2-.1c7.4-.6,8.8-4,15.7-20.6,1.4-3.3,3-7.2,5-11.8,4.9.6,9,1.2,12.5,1.6,18.1,2.4,21.9,2.9,25.9-3.3,4-6.1,3.3-7.4-15.1-38.9-3.7-6.2-8-13.8-13.2-22.8,11.2-5.4,18.3-17.3,17.3-29.7,0-3.3,2.1-6.2,5.2-7.3,7.7-2.7,13.9-8.3,17.4-15.7,3.5-7.4,4-15.7,1.2-23.3-.3-1-.7-1.9-1.2-2.9ZM406.9,666.6c-.3-.9-.6-1.7-.9-2.5-5.2-12.9-7.5-16.7-15.8-16.7s-6.3.4-10.8,1.1c-.9.1-1.9.3-2.9.4,7.3-12.6,12.2-21.1,15.5-26.9,1.8-3.2,3.2-5.7,4.2-7.4.3.4.5.8.6,1.3,4.2,12.1,15.3,20,27.5,20.5l-17.5,30.2ZM563.5,648.6c-18.5-2.7-20.3-1.7-27.1,15.4-.3.8-.6,1.7-1,2.6l-17.4-30.1c12.2-.5,23.2-8.4,27.4-20.4.2-.5.5-1,.7-1.5l19.8,34.3c-.9-.1-1.7-.2-2.5-.4ZM595.6,501.4c-.2.2-.4.4-.7.6h0c-10.2,9.1-13.1,24-7.2,36.2.9,1.9,1,4,.4,5.9s-2,3.5-3.9,4.4c-.3.2-.6.3-.9.4-13.1,4.6-21.5,17.5-20.5,31,0,4.4-3.6,7.9-7.9,7.9-.2,0-.4,0-.8,0-13.6-.5-25.6,7.6-30.1,20.4-.7,2-2.1,3.6-4,4.4-1.9.9-4,1-6,.3-.3,0-.5-.2-.7-.3-12.4-5.9-26.9-3-36,7-3.2,3.3-8.4,3.4-11.9.1-6-6.6-14.4-10.2-23-10.2s-9,.9-13.2,3c-1.9.9-4,1-6,.3-2-.7-3.6-2.1-4.4-4-.2-.3-.3-.5-.4-.8-4.6-13.1-17.4-21.6-31-20.5-2.1,0-4.1-.8-5.6-2.3-1.5-1.5-2.3-3.5-2.3-5.6s0-.5,0-.8c.6-13.6-7.6-25.7-20.5-30.2-4-1.3-6.2-5.7-4.9-9.6.2-.4.3-.7.5-1.1,5.8-12.1,2.9-27-7.2-36.1-3.2-2.8-3.5-7.8-.7-11,.2-.3.5-.5.7-.7,10-9.1,13-23.9,7.2-36.2-.9-1.8-1-3.9-.4-5.8s2-3.5,3.8-4.4c.3-.2.7-.3,1.1-.5,13.1-4.6,21.5-17.5,20.4-31.1,0-2.1.8-4,2.3-5.5,1.5-1.5,3.5-2.3,5.5-2.3s.5,0,.9,0c13.6.6,25.6-7.6,30.1-20.5,1.5-4.1,6-6.2,10-4.8.3.1.5.2.7.3,12.2,5.8,27.1,2.9,36-7.1,3.1-3.3,8.4-3.4,11.9-.1,9.1,10.1,23.9,13.1,36.2,7.2,3.9-1.9,8.5-.2,10.4,3.6.2.3.3.6.4.9,4.7,13.1,17.6,21.5,31.1,20.4,4.3,0,7.9,3.6,7.9,8s0,.4,0,.8c-.6,13.6,7.6,25.7,20.5,30.2,1.9.7,3.5,2,4.4,3.8.9,1.8,1.1,3.9.4,5.9-.1.3-.3.6-.4,1-5.9,12.2-2.9,27,7.1,36.1,1.6,1.4,2.5,3.3,2.7,5.4.1,2.1-.6,4.1-2,5.7Z"/>
        <path class="cls-1" d="M540.7,480.7c0-3-1.1-5.9-3.2-8.1-1.8-1.8-4.1-3-6.6-3.3l-34.2-5c-3-6.2-5.5-11.3-7.5-15.4-9.2-19-10.6-21.9-18-21.9s-8.6,2.5-18.2,22.1c-2,4.1-4.4,9.2-7.4,15.2-6.9,1-12.5,1.8-17.1,2.4-20.7,2.8-23.9,3.2-26.2,10.3-2.4,7.2-.2,9.3,16.8,25.5,3,2.9,6.6,6.3,10.8,10.3-1.1,6.4-2,11.8-2.9,16.2-3.9,21.7-4.4,24.5,1.5,29.1,2.1,1.6,3.8,2.5,6,2.5,3.9,0,9.2-2.9,20.7-9.1,4.2-2.3,9.5-5.1,16-8.5,6.8,3.6,12.1,6.4,16.4,8.6q16.5,8.7,19.4,8.7c3,0,5.9-1.1,8.1-3.2,2.1-2.1,3.4-4.9,3.4-8,0-.7,0-1.4-.2-2.1l-5.9-34.1,24.8-24.1c2.2-2.1,3.5-4.9,3.5-8ZM492.2,500.5c-2.4,2.3-3.3,4.2-3.3,7.7s.8,7.5,2,14.4c.3,1.6.6,3.2.9,5.1l-5.1-2.7c-12.1-6.4-12.7-6.7-15.4-6.7h-.4c-2.7-.1-2.7,0-15.4,6.7l-5.1,2.7c.3-1.7.6-3.2.8-4.7,2.8-15.4,3.3-18.3-1.2-22.6l-12.5-12.2,17.3-2.5c6.2-.9,7.6-3.8,14.2-17.5.6-1.3,1.3-2.7,2.1-4.3.7,1.6,1.5,3,2.1,4.3,6.8,14.1,8,16.6,14.2,17.5l17.3,2.5-12.5,12.2Z"/>
      </g>
    </g>
    <g id="overeno" class="cls-4">
      <rect x="186.8" y="241" width="568.7" height="568.7" rx="82" ry="82"/>
      <path class="cls-1" d="M471.1,349.6l130.8,29.3c7.8,2,13.7,7.8,13.7,15.6v160.1c0,31.2-15.6,62.5-43,80.1l-101.6,66.4-101.6-66.4c-27.3-17.6-43-48.8-43-80.1v-160.1c0-7.8,3.9-13.7,13.7-15.6l130.8-29.3ZM543.4,464.8l-78.1,78.1-44.9-44.9-21.5,21.5,66.4,66.4,101.6-101.6-23.4-19.5Z"/>
    </g>
    <g id="Hvezda">
      <path d="M838.6,421.2h-245.9l-96.2-256.6-96.2,256.6h-245.9l185.2,162-99.6,265.7,256.6-128.3,256.6,128.3-99.6-265.7,185.2-162Z"/>
    </g>
    <g id="Facebook" class="cls-4">
      <rect class="cls-3" x="236.1" y="246.3" width="520.7" height="520.7" rx="105.4" ry="105.4"/>
      <path class="cls-1" d="M523.8,418.9v40.3h62.5l-8.2,62.8h-54.2v161.9h-64.9v-161.9h-54.3v-62.8h54.3v-46.4c0-53.9,32.8-83.4,80.9-83.4s42.7,2,48.5,2.4v56.3h-33.3c-25.9,0-31.2,12.7-31.2,30.8Z"/>
    </g>
    <g id="Logo" class="cls-4">
      <path class="cls-3" d="M46.9,591.3c-3.1,3.2-8.2,3.2-11.4,0-3.2-3.1-3.2-8.2,0-11.4l268.2-307.1,3.8-3.8,5,2.1,310.4,131.2v-79.9h75.3v111.7l276.2,116.7c4.1,1.7,6,6.4,4.3,10.5-1.7,4.1-6.4,6-10.5,4.3l-281.2-118.8-5-2.1v-106.2h-43v88.1l-11.2-4.7-316.6-133.8L46.9,591.3Z"/>
      <path class="cls-2" d="M965.6,612.2c6.9-3.6,14.2-8.2,20.4-12.7l-4.8-7.2c-6.9,5.1-13.5,9.2-20.1,13.2l4.4,6.8ZM970.7,620.4h-9.7v109.7h9.7v-109.7ZM896.7,721.4l-35.7-101h-9.6l38.7,109.7h13.2l38.7-109.7h-9.6l-35.7,101ZM800.5,730.1h9.7v-101h33.8v-8.7h-77.2v8.7h33.8v101ZM751.6,702.9c0-20.8-1.6-24.9-30.5-32.1-23.1-5.8-23.6-6.6-23.6-24.4s3-18.9,24.7-18.9,18.8,1.5,26.8,3.3l1.2-8.2c-7.4-2.1-18.8-3.8-28.3-3.8-27.5,0-34.1,9.4-34.1,27.3s3,26.8,29.5,32.9c24.4,5.6,24.5,7.4,24.5,24.4s-5.1,19.6-23.9,19.6-19.6-1.5-29.5-4.4l-1.8,7.9c9.4,3.6,21.4,5.3,31,5.3,27.8,0,33.9-10.9,33.9-28.8ZM636.7,662.6c0,8.2-2.6,12-13.2,12h-19.6v-32.3h19.6c10,0,13.2,3.3,13.2,11.5v8.7ZM642.6,730.1h29.3l-26.5-37.6c11-4.6,16-13.8,16-27.5v-13.5c0-20.6-9.9-31.1-36.6-31.1h-45.6v109.7h24.7v-34.1h14.5l24.2,34.1ZM542.4,613.7c9.4-4.9,15.2-8.2,23.1-13.8l-8.9-13.8c-6.4,4.9-14.3,10-22.4,15.2l8.2,12.5ZM556.9,730.1v-109.7h-24.7v109.7h24.7ZM491.9,663.4c0,7.9-2.3,12-13.2,12h-18.8v-33.1h18.8c10.4,0,13.2,3.6,13.2,11.5v9.6ZM516.6,665.9v-14.3c0-20.6-9.9-31.1-36.6-31.1h-44.8v109.7h24.7v-33.3h18.8c26.7,0,37.9-10.4,37.9-31ZM348.7,715.9h22.1l19.1-46.8,1.6,60.9h23.9l-4.6-109.7h-24.7l-26.4,69.8-26.4-69.8h-24.7l-4.6,109.7h23.9l1.6-60.9,19.1,46.8ZM286.8,730.1v-21.9h-44.3v-23.9h40.8v-21.9h-40.8v-20.1h44.3v-21.9h-69v109.7h69ZM203.8,730.1v-21.9h-43.5v-87.8h-24.7v109.7h68.2ZM93.8,730.1h27.8l-33.1-56,30.8-53.7h-27.8l-29.6,53.7,32,56ZM34,730.1h24.7v-109.7h-24.7v109.7Z"/>
      <path class="cls-2" d="M631.1,587c-5.9,2.6-9.2,4.3-14.7,7.4-5.4-3.1-8.7-4.8-14.7-7.4l-6.4,10.2c7.7,5.3,13.5,9.6,21.1,15.5,7.6-5.9,13.3-10.2,21.1-15.5l-6.4-10.2Z"/>
      <path class="cls-2" d="M548.5,456.5c4.8,4.3,10.1,9.6,15,14.8,7.4-5,15.5-10.3,22.8-14.8l-3.2-7.3c-7,3.5-10.6,5.5-16,8.8-3.7-3.2-6.3-5.3-11.3-8.8l-7.2,7.3ZM572,523.5c3.6-13.5,2.5-16-14.6-20.8-8.3-2.3-8.6-2.7-7.2-8,1.1-4.1,2.7-5.7,9.9-5.7s12.9.9,17.6,1.9l5.1-13.1c-5.3-1.5-13.1-2.3-19.1-2.3-18.8,0-26.2,5.8-29.7,19.1-3.4,12.7-2.6,16.8,12.5,20.7,10,2.6,10.3,4.6,9.2,8.7-1.3,5-2.9,6.6-10.2,6.6s-13.8-1.2-18.9-2.8l-5.7,12.6c5.5,2.2,14.7,3.8,21.7,3.8,19.9,0,25.9-7.8,29.3-20.6ZM501.3,500.8l-4.8,17.7c-2,7.4-6.4,11.4-15.2,11.4s-11.1-3.9-9.1-11.4l4.8-17.7c2-7.4,6.4-11.4,15.2-11.4s11.1,3.9,9.1,11.4ZM513.2,518l4.5-16.6c3.6-13.5.9-26-21.7-26s-32,12.5-35.7,26l-4.5,16.6c-3.6,13.5-.9,26,21.7,26s32-12.5,35.7-26ZM409.3,495.4c4.4-3.2,10.9-6,16.3-6s7.3,3,5.9,8.4l-6.2,23.3c-1.6,6-4.7,8.8-10.6,8.8s-10.1-.8-14.1-1.8l8.8-32.8ZM447.9,498.3c4-15-.9-22.9-14.2-22.9s-15.7,2.7-22.7,6.9v-5.5h-13.3l-25.4,94.9,17.1-2.3,7.3-27.2c4.9,1.1,11.3,1.9,17.1,1.9,15.3,0,24.1-8.7,28-23.3l6-22.5ZM381.3,467.4l5.1-19.1h-16.5l-5.1,19.1h16.5ZM361.1,542.7l17.7-65.9h-16.5l-17.7,65.9h16.5ZM348.9,364.3c-8.3,3.3-12.9,5.3-20.7,9.2-5.7-3.9-9.3-6-15.8-9.2l-11.4,12.7c7.9,6.6,13.6,11.9,21.1,19.3,11.4-7.4,20-12.7,31.4-19.3l-4.6-12.7ZM337.2,504.3c7.2-26.9,7.3-34.1-27.3-42.9-20.2-5.1-20.7-5.3-17.2-18.5,2.7-10.1,6.4-12.5,20.2-12.5s22,1.2,36.9,3.9l10-25.9c-14.3-3.3-28.3-4.5-40.2-4.5-37.6,0-50.1,10.9-57.4,38.2-7.9,29.6-4.8,36.1,26.4,43.3,21.1,4.9,21.3,6.4,18,18.7-3.1,11.5-7,14.6-22.8,14.6s-26.2-2.7-37.6-6.6l-11.5,23.8c10.3,5.3,26,8.8,41.8,8.8,41.3,0,53.7-13.3,60.9-40.4Z"/>
    </g>
  </g>
</svg>