<svg width="521" height="521" viewBox="0 0 521 521" fill="none" xmlns="http://www.w3.org/2000/svg">
<path d="M415.1 0H105.4C47.1892 0 0 47.1892 0 105.4V415.1C0 473.311 47.1892 520.5 105.4 520.5H415.1C473.311 520.5 520.5 473.311 520.5 415.1V105.4C520.5 47.1892 473.311 0 415.1 0Z" fill="#E2000F"/>
<path d="M430.3 189.7C427.6 127.5 393 93 330.8 90.2C312.5 89.4 306.6 89 260.2 89C213.8 89 207.9 89.4 189.6 90.2C127.4 93 92.9 127.5 90.1 189.7C89.3 207.9 88.9 213.9 88.9 260.3C88.9 306.7 89.3 312.6 90.1 330.9C92.9 393.1 127.4 427.6 189.6 430.4C207.8 431.2 213.8 431.6 260.2 431.6C306.6 431.6 312.5 431.2 330.8 430.4C393 427.7 427.5 393.2 430.3 330.9C431.1 312.6 431.5 306.7 431.5 260.3C431.5 213.9 431.1 208 430.3 189.7ZM399.7 329.2C397.3 375.6 375.9 397.4 329.5 399.4C311.3 400.6 305.7 400.6 260.2 400.6C214.7 400.6 209.1 400.6 191.2 399.4C144.4 397.4 123 375.2 121.1 329.2C120.3 311.4 119.9 305.8 119.9 260.3C119.9 214.8 120.3 209.2 121.1 191.3C123.1 144.9 144.9 123.1 191.2 121.2C209.1 120.4 214.6 120 260.2 120C305.8 120 311.3 120.4 329.5 121.2C375.9 123.2 397.3 145 399.7 191.3C400.5 209.2 400.5 214.7 400.5 260.3C400.5 305.9 400.5 311.4 399.7 329.2Z" fill="white"/>
<path d="M351.8 148.4C340.3 148.4 331.2 157.5 331.2 169C331.2 180.5 340.3 189.2 351.8 189.2C363.3 189.2 372 180.1 372 169C372 157.9 362.9 148.4 351.8 148.4Z" fill="white"/>
<path d="M260.2 172.2C211.8 172.2 172.2 211.8 172.2 260.2C172.2 308.6 211.8 348.2 260.2 348.2C308.6 348.2 348.2 308.5 348.2 260.2C348.2 211.9 308.9 172.2 260.2 172.2ZM260.2 317.3C228.9 317.3 203.1 291.9 203.1 260.3C203.1 228.7 228.9 203.2 260.2 203.2C291.5 203.2 317.2 229 317.2 260.3C317.2 291.6 291.8 317.3 260.2 317.3Z" fill="white"/>
</svg>
