<svg width="953" height="463" viewBox="0 0 953 463" fill="none" xmlns="http://www.w3.org/2000/svg">
<path d="M13.9 322.3C10.8 325.5 5.69998 325.5 2.49998 322.3C-0.700024 319.2 -0.700024 314.1 2.49998 310.9L270.7 3.79999L274.5 0L279.5 2.10001L589.9 133.3V53.4H665.2V165.1L941.4 281.8C945.5 283.5 947.4 288.2 945.7 292.3C944 296.4 939.3 298.3 935.2 296.6L654 177.8L649 175.7V69.5H606V157.6L594.8 152.9L278.2 19.1L13.9 322.3Z" fill="#E2000F"/>
<path fill-rule="evenodd" clip-rule="evenodd" d="M932.6 343.2C939.5 339.6 946.8 335 953 330.5L948.2 323.3C941.3 328.4 934.7 332.5 928.1 336.5L932.5 343.3L932.6 343.2ZM937.7 351.4H928V461.1H937.7V351.4ZM863.7 452.4L828 351.4H818.4L857.1 461.1H870.3L909 351.4H899.4L863.7 452.4ZM767.5 461.1H777.2V360.1H811V351.4H733.8V360.1H767.6V461.1H767.5ZM718.6 433.9C718.6 413.1 717 409 688.1 401.8C665 396 664.5 395.2 664.5 377.4C664.5 359.6 667.5 358.5 689.2 358.5C710.9 358.5 708 360 716 361.8L717.2 353.6C709.8 351.5 698.4 349.8 688.9 349.8C661.4 349.8 654.8 359.2 654.8 377.1C654.8 395 657.8 403.9 684.3 410C708.7 415.6 708.8 417.4 708.8 434.4C708.8 451.4 703.7 454 684.9 454C666.1 454 665.3 452.5 655.4 449.6L653.6 457.5C663 461.1 675 462.8 684.6 462.8C712.4 462.8 718.5 451.9 718.5 434L718.6 433.9ZM603.7 393.6C603.7 401.8 601.1 405.6 590.5 405.6H570.9V373.3H590.5C600.5 373.3 603.7 376.6 603.7 384.8V393.5V393.6ZM609.6 461.1H638.9L612.4 423.5C623.4 418.9 628.4 409.7 628.4 396V382.5C628.4 361.9 618.5 351.4 591.8 351.4H546.2V461.1H570.9V427H585.4L609.6 461.1ZM509.4 344.7C518.8 339.8 524.6 336.5 532.5 330.9L523.6 317.1C517.2 322 509.3 327.1 501.2 332.3L509.4 344.8V344.7ZM523.9 461.1V351.4H499.2V461.1H523.9ZM458.9 394.4C458.9 402.3 456.6 406.4 445.7 406.4H426.9V373.3H445.7C456.1 373.3 458.9 376.9 458.9 384.8V394.4ZM483.6 396.9V382.6C483.6 362 473.7 351.5 447 351.5H402.2V461.2H426.9V427.9H445.7C472.4 427.9 483.6 417.5 483.6 396.9ZM315.7 446.9H337.8L356.9 400.1L358.5 461H382.4L377.8 351.3H353.1L326.7 421.1L300.3 351.3H275.6L271 461H294.9L296.5 400.1L315.6 446.9H315.7ZM253.8 461.1V439.2H209.5V415.3H250.3V393.4H209.5V373.3H253.8V351.4H184.8V461.1H253.8ZM170.8 461.1V439.2H127.3V351.4H102.6V461.1H170.8ZM60.8 461.1H88.6L55.5 405.1L86.3 351.4H58.5L28.9 405.1L60.9 461.1H60.8ZM1 461.1H25.7V351.4H1V461.1Z" fill="white"/>
<path fill-rule="evenodd" clip-rule="evenodd" d="M598.1 318C592.2 320.6 588.9 322.3 583.4 325.4C578 322.3 574.7 320.6 568.7 318L562.3 328.2C570 333.5 575.8 337.8 583.4 343.7C591 337.8 596.7 333.5 604.5 328.2L598.1 318Z" fill="white"/>
<path fill-rule="evenodd" clip-rule="evenodd" d="M515.5 187.5C520.3 191.8 525.6 197.1 530.5 202.3C537.9 197.3 546 192 553.3 187.5L550.1 180.2C543.1 183.7 539.5 185.7 534.1 189C530.4 185.8 527.8 183.7 522.8 180.2L515.6 187.5H515.5ZM539 254.5C542.6 241 541.5 238.5 524.4 233.7C516.1 231.4 515.8 231 517.2 225.7C518.3 221.6 519.9 220 527.1 220C534.3 220 540 220.9 544.7 221.9L549.8 208.8C544.5 207.3 536.7 206.5 530.7 206.5C511.9 206.5 504.5 212.3 501 225.6C497.6 238.3 498.4 242.4 513.5 246.3C523.5 248.9 523.8 250.9 522.7 255C521.4 260 519.8 261.6 512.5 261.6C505.2 261.6 498.7 260.4 493.6 258.8L487.9 271.4C493.4 273.6 502.6 275.2 509.6 275.2C529.5 275.2 535.5 267.4 538.9 254.6L539 254.5ZM468.3 231.8L463.5 249.5C461.5 256.9 457.1 260.9 448.3 260.9C439.5 260.9 437.2 257 439.2 249.5L444 231.8C446 224.4 450.4 220.4 459.2 220.4C468 220.4 470.3 224.3 468.3 231.8ZM480.2 249L484.7 232.4C488.3 218.9 485.6 206.4 463 206.4C440.4 206.4 431 218.9 427.3 232.4L422.8 249C419.2 262.5 421.9 275 444.5 275C467.1 275 476.5 262.5 480.2 249ZM376.3 226.4C380.7 223.2 387.2 220.4 392.6 220.4C398 220.4 399.9 223.4 398.5 228.8L392.3 252.1C390.7 258.1 387.6 260.9 381.7 260.9C375.8 260.9 371.6 260.1 367.6 259.1L376.4 226.3L376.3 226.4ZM414.9 229.3C418.9 214.3 414 206.4 400.7 206.4C387.4 206.4 385 209.1 378 213.3V207.8H364.7L339.3 302.7L356.4 300.4L363.7 273.2C368.6 274.3 375 275.1 380.8 275.1C396.1 275.1 404.9 266.4 408.8 251.8L414.8 229.3H414.9ZM348.3 198.4L353.4 179.3H336.9L331.8 198.4H348.3ZM328.1 273.7L345.8 207.8H329.3L311.6 273.7H328.1ZM315.9 95.3C307.6 98.6 303 100.6 295.2 104.5C289.5 100.6 285.9 98.5 279.4 95.3L268 108C275.9 114.6 281.6 119.9 289.1 127.3C300.5 119.9 309.1 114.6 320.5 108L315.9 95.3ZM304.2 235.3C311.4 208.4 311.5 201.2 276.9 192.4C256.7 187.3 256.2 187.1 259.7 173.9C262.4 163.8 266.1 161.4 279.9 161.4C293.7 161.4 301.9 162.6 316.8 165.3L326.8 139.4C312.5 136.1 298.5 134.9 286.6 134.9C249 134.9 236.5 145.8 229.2 173.1C221.3 202.7 224.4 209.2 255.6 216.4C276.7 221.3 276.9 222.8 273.6 235.1C270.5 246.6 266.6 249.7 250.8 249.7C235 249.7 224.6 247 213.2 243.1L201.7 266.9C212 272.2 227.7 275.7 243.5 275.7C284.8 275.7 297.2 262.4 304.4 235.3H304.2Z" fill="white"/>
</svg>
